<?xml version="1.0" standalone="no"?>
<!DOCTYPE svg PUBLIC "-//W3C//DTD SVG 20010904//EN"
 "http://www.w3.org/TR/2001/REC-SVG-20010904/DTD/svg10.dtd">
<svg version="1.0" xmlns="http://www.w3.org/2000/svg"
 width="1745.000000pt" height="1385.000000pt" viewBox="0 0 1745.000000 1385.000000"
 preserveAspectRatio="xMidYMid meet">

<g transform="translate(0.000000,1385.000000) scale(0.100000,-0.100000)"
fill="#000000" stroke="none">
<path d="M8694 13716 c-35 -35 -36 -39 -32 -91 5 -64 34 -102 82 -109 17 -3
144 -10 281 -16 660 -27 1257 -134 1847 -331 200 -66 518 -190 518 -201 0 -4
-31 -73 -70 -153 -78 -166 -80 -185 -12 -185 77 1 831 58 841 65 6 3 11 16 11
29 0 21 -458 712 -484 728 -26 18 -44 -3 -103 -117 -34 -66 -64 -124 -66 -129
-2 -6 -85 23 -184 62 -750 298 -1548 462 -2330 479 l-262 6 -37 -37z"/>
<path d="M7305 13665 c-108 -24 -790 -244 -1855 -600 -322 -107 -591 -195
-599 -195 -8 0 -278 95 -600 211 l-586 211 -127 126 -127 125 -68 -18 c-126
-33 -121 -12 -45 -184 l67 -150 253 -291 c139 -159 264 -303 277 -319 l25 -28
-88 -31 c-48 -17 -388 -133 -756 -258 l-669 -226 -471 316 -471 317 -123 -52
c-68 -28 -122 -55 -120 -60 22 -60 725 -1459 733 -1459 31 0 1217 332 1739
486 120 36 220 63 222 61 3 -3 -275 -966 -307 -1066 l-11 -33 -42 45 c-39 42
-45 45 -124 57 -45 7 -84 11 -86 9 -2 -2 25 -83 61 -179 l64 -176 165 -28 c91
-15 166 -26 168 -25 1 2 350 419 774 925 l772 921 347 118 c995 335 1752 639
2186 876 148 82 187 113 216 173 85 175 -85 337 -422 401 -96 18 -289 18 -372
0z m389 -178 c63 -29 116 -78 116 -108 0 -23 -47 -48 -158 -83 -126 -40 -215
-58 -269 -54 -46 3 -49 5 -70 48 -12 25 -29 76 -37 113 -14 67 -13 69 8 78 53
24 156 38 251 36 83 -3 111 -8 159 -30z"/>
<path d="M15850 12430 l0 -1020 -472 2 -473 3 -22 70 c-12 39 -114 391 -228
784 -113 392 -212 726 -221 742 -31 61 4 59 -873 59 -495 0 -809 -4 -825 -10
-14 -5 -35 -24 -46 -42 -20 -33 -20 -51 -20 -1367 0 -1320 0 -1334 20 -1366
25 -41 75 -65 134 -65 43 0 46 2 46 28 1 60 32 172 71 252 79 160 228 276 406
316 88 19 237 15 314 -10 161 -50 300 -168 374 -314 30 -61 65 -189 65 -239
l0 -33 180 0 179 0 6 38 c23 149 54 229 128 329 74 99 179 172 317 219 83 28
271 27 365 -3 139 -44 272 -154 339 -283 40 -75 76 -200 76 -262 l0 -38 79 0
78 0 6 -49 c9 -72 31 -109 80 -132 40 -18 77 -19 775 -19 l732 0 0 110 0 110
-690 0 -690 0 0 1605 0 1605 -105 0 -105 0 0 -1020z m-1711 281 c10 -7 381
-1264 381 -1293 0 -5 -14 -8 -32 -8 -27 0 -57 25 -237 203 l-206 202 67 71
c41 44 68 80 68 94 0 25 -51 80 -74 80 -8 0 -41 -22 -73 -49 -95 -80 -333
-326 -333 -345 0 -25 27 -73 45 -80 44 -16 69 -6 127 54 32 33 62 60 66 60 4
0 70 -63 147 -140 l140 -140 -593 0 -592 0 0 650 0 650 543 0 c298 0 548 -4
556 -9z"/>
<path d="M13362 10665 c-109 -31 -201 -96 -261 -185 -147 -221 -89 -508 131
-651 81 -52 165 -73 275 -67 77 3 100 9 166 41 243 115 338 404 210 639 -42
76 -147 169 -229 202 -86 35 -211 44 -292 21z"/>
<path d="M14961 10665 c-119 -34 -228 -119 -285 -224 -100 -187 -64 -419 88
-559 98 -90 200 -126 340 -120 80 3 101 8 169 41 299 142 358 523 117 751 -87
82 -170 117 -290 122 -56 3 -103 -1 -139 -11z"/>
<path d="M8400 10614 c-293 -31 -527 -82 -812 -176 l-130 -43 -25 -55 c-74
-166 -285 -731 -307 -822 -7 -32 -15 -29 167 -63 407 -74 824 -117 1260 -128
l147 -4 0 653 0 654 -87 -1 c-49 -1 -144 -7 -213 -15z"/>
<path d="M8860 9978 l0 -651 160 7 c289 12 625 48 945 101 229 39 465 87 465
96 0 31 -229 643 -303 809 l-25 55 -143 47 c-223 72 -361 107 -574 142 -126
21 -371 46 -455 46 l-70 0 0 -652z"/>
<path d="M2638 10124 c-128 -97 -283 -215 -345 -261 -61 -46 -114 -91 -117
-100 -11 -27 20 -48 154 -103 71 -29 130 -57 130 -61 0 -5 -25 -69 -55 -144
-233 -577 -384 -1177 -454 -1800 -34 -302 -44 -514 -39 -877 3 -315 5 -346 23
-375 38 -64 135 -83 187 -36 42 37 46 65 37 273 -34 750 87 1594 332 2332 83
247 194 528 210 528 5 0 70 -26 145 -57 141 -59 165 -62 172 -17 1 11 -20 200
-48 421 -27 221 -50 406 -50 411 0 13 -28 42 -40 42 -5 0 -114 -79 -242 -176z"/>
<path d="M7080 10224 c-79 -41 -200 -109 -267 -150 -202 -124 -524 -372 -500
-385 21 -11 346 -98 497 -133 l145 -33 76 221 c67 194 100 284 188 504 11 28
17 52 13 52 -4 0 -72 -34 -152 -76z"/>
<path d="M10336 10263 c35 -81 173 -454 214 -576 34 -104 45 -127 58 -123 10
3 55 15 102 26 126 31 471 130 488 139 25 14 -257 227 -475 359 -116 71 -382
212 -397 212 -4 0 1 -17 10 -37z"/>
<path d="M11300 9589 c-38 -16 -379 -113 -525 -149 -71 -19 -131 -34 -132 -34
-1 -1 18 -71 43 -156 188 -654 310 -1340 344 -1933 6 -106 14 -229 16 -274 l6
-83 739 0 740 0 -6 93 c-38 593 -166 1065 -424 1563 -169 326 -367 599 -648
895 -88 91 -101 98 -153 78z"/>
<path d="M6045 9443 c-390 -426 -654 -873 -825 -1392 -106 -323 -156 -595
-185 -1003 l-6 -88 740 0 739 0 6 83 c3 45 8 141 11 212 27 576 162 1355 344
1975 22 74 39 135 38 136 -1 1 -74 18 -162 39 -88 21 -254 64 -368 96 -114 33
-212 59 -217 59 -4 0 -56 -53 -115 -117z"/>
<path d="M10360 9344 c-370 -83 -1086 -174 -1373 -174 -45 0 -92 -3 -104 -6
l-23 -6 0 -1099 0 -1099 1010 0 1010 0 0 103 c0 329 -67 894 -161 1360 -72
361 -222 938 -245 943 -5 1 -56 -9 -114 -22z"/>
<path d="M7067 9323 c-10 -17 -90 -308 -137 -498 -143 -582 -229 -1166 -247
-1677 l-6 -188 1011 0 1012 0 0 1099 0 1098 -197 7 c-450 15 -984 75 -1345
151 -80 17 -85 18 -91 8z"/>
<path d="M15179 8927 c-19 -13 -40 -39 -48 -60 -13 -36 -12 -46 32 -205 165
-590 240 -1151 240 -1782 0 -624 -73 -1172 -233 -1755 -50 -181 -175 -563
-189 -578 -4 -4 -67 20 -141 53 -73 33 -139 60 -145 60 -37 0 -37 -20 9 -455
26 -251 49 -432 56 -441 7 -8 20 -14 29 -14 19 1 690 488 705 513 19 30 -4 47
-144 109 -74 33 -137 61 -139 63 -1 2 22 73 52 157 207 580 335 1213 378 1872
15 224 6 834 -15 1041 -46 467 -121 867 -234 1260 -36 123 -45 141 -85 165
-42 26 -86 25 -128 -3z"/>
<path d="M5036 6708 c34 -568 156 -1031 399 -1513 172 -342 363 -613 648 -919
l74 -79 179 51 c98 28 262 72 364 97 102 26 186 48 188 50 2 2 -12 59 -31 127
-152 530 -262 1109 -311 1638 -13 142 -36 528 -36 613 l0 27 -740 0 -740 0 6
-92z"/>
<path d="M6683 6583 c19 -650 144 -1389 364 -2137 4 -14 12 -17 37 -13 17 3
119 21 226 41 377 67 785 110 1178 122 l212 7 0 1099 0 1098 -1012 0 -1011 0
6 -217z"/>
<path d="M8860 5701 l0 -1099 73 -6 c39 -3 126 -8 192 -11 339 -17 787 -77
1199 -160 93 -19 171 -34 172 -32 6 6 88 302 128 462 152 610 238 1195 253
1728 l6 217 -1011 0 -1012 0 0 -1099z"/>
<path d="M11050 6773 c0 -16 -5 -125 -10 -243 -31 -657 -141 -1317 -337 -2008
-25 -89 -43 -165 -41 -168 3 -3 73 -22 154 -44 167 -42 213 -55 400 -111 72
-22 139 -37 148 -33 22 9 243 248 337 366 343 429 581 909 713 1433 59 231 89
438 111 748 l6 87 -740 0 -741 0 0 -27z"/>
<path d="M1526 5729 l-26 -20 0 -318 c0 -371 4 -356 -91 -363 -52 -4 -66 -9
-86 -32 l-23 -27 0 -505 c0 -548 0 -547 -55 -572 -18 -8 -102 -12 -271 -12
-154 0 -253 -4 -265 -11 -45 -24 -45 -27 71 -763 60 -385 113 -718 116 -739 7
-43 43 -91 85 -112 41 -22 3772 -23 3822 -1 28 11 111 131 542 777 279 420
510 773 512 784 2 11 -2 29 -11 40 -14 19 -26 20 -311 20 l-297 0 -19 -24
c-12 -15 -19 -39 -19 -68 0 -53 -30 -88 -81 -98 -19 -3 -636 -4 -1371 -3
l-1338 3 -27 28 -28 27 -3 425 -3 425 -274 0 -275 0 0 95 0 95 275 0 275 0 0
96 c0 52 -4 104 -10 114 -10 19 -59 40 -94 40 -43 0 -51 15 -57 111 -7 122
-15 129 -145 129 -124 0 -134 -9 -134 -118 0 -100 -14 -122 -74 -122 -72 0
-71 -6 -72 340 -1 169 -4 319 -7 332 -9 34 -46 48 -131 48 -59 0 -78 -4 -100
-21z m169 -2439 c47 -23 85 -80 85 -130 0 -71 -55 -136 -124 -147 -48 -8 -80
2 -120 38 -63 55 -71 138 -19 200 50 59 110 72 178 39z m964 0 c128 -65 95
-258 -47 -277 -73 -10 -150 48 -167 124 -12 59 40 141 105 166 30 11 72 6 109
-13z m815 6 c18 -8 46 -31 62 -51 90 -118 -45 -284 -180 -220 -109 52 -114
202 -10 262 45 26 81 29 128 9z m831 -6 c48 -23 85 -80 85 -132 0 -102 -121
-179 -209 -133 -95 49 -117 167 -43 238 52 50 103 58 167 27z"/>
<path d="M2781 4951 c-29 -29 -33 -67 -29 -290 l3 -203 28 -24 28 -24 419 0
419 0 28 24 28 24 0 237 c0 237 0 237 -24 256 -22 18 -45 19 -452 19 -412 0
-430 -1 -448 -19z"/>
<path d="M3825 4945 l-25 -24 0 -229 c0 -211 2 -232 19 -253 l19 -24 418 -3
c292 -2 426 1 445 9 46 18 50 46 47 293 -3 212 -4 229 -22 242 -16 12 -94 14
-448 14 l-429 0 -24 -25z"/>
<path d="M8375 4429 c-379 -16 -899 -80 -1226 -150 l-48 -10 71 -207 c64 -190
184 -505 242 -635 l23 -53 154 -51 c330 -110 643 -170 982 -189 l127 -7 0 657
0 656 -77 -2 c-43 0 -154 -4 -248 -9z"/>
<path d="M8860 3780 l0 -653 123 7 c335 17 656 79 986 189 l154 51 23 53 c85
191 294 759 294 797 0 19 -445 103 -770 146 -229 30 -454 50 -642 57 l-168 6
0 -653z"/>
<path d="M2804 4316 c-48 -21 -54 -54 -54 -275 0 -225 8 -258 68 -273 18 -5
214 -7 437 -6 l404 3 23 23 c23 22 23 26 23 257 0 231 0 235 -23 257 l-23 23
-412 2 c-332 2 -418 0 -443 -11z"/>
<path d="M3855 4320 c-54 -17 -55 -24 -55 -275 l0 -232 26 -24 26 -24 425 0
425 0 24 28 c24 28 24 30 24 252 0 222 0 224 -24 252 l-24 28 -408 2 c-230 1
-422 -2 -439 -7z"/>
<path d="M6670 4170 c-124 -31 -258 -67 -298 -79 l-72 -22 67 -58 c196 -168
426 -322 683 -459 187 -99 177 -105 110 66 -68 173 -199 543 -207 584 -8 38
-15 37 -283 -32z"/>
<path d="M10550 4027 c-30 -89 -89 -251 -131 -359 l-76 -197 36 15 c56 23 215
109 331 179 199 120 510 350 493 366 -15 13 -551 159 -585 159 -8 0 -34 -63
-68 -163z"/>
<path d="M12770 2520 l0 -800 282 0 282 0 -45 -29 c-55 -34 -115 -95 -136
-136 -9 -16 -17 -32 -19 -34 -2 -2 -18 12 -36 32 -46 48 -88 57 -278 57 l-165
0 3 750 2 750 -21 21 c-22 22 -24 22 -353 16 -205 -3 -346 -10 -370 -17 -72
-21 -189 -153 -341 -382 l-58 -88 -112 0 -113 0 -77 -209 -78 -208 -86 -12
c-147 -21 -401 -92 -613 -173 l-78 -30 0 -223 0 -224 -62 -3 -63 -3 -3 -152
-3 -153 155 0 155 0 -6 48 c-8 71 14 181 53 263 94 195 322 315 533 279 137
-23 277 -114 351 -229 69 -109 95 -260 66 -385 l-17 -70 26 -25 25 -26 720 -3
c705 -2 721 -2 760 18 21 11 47 30 57 43 l17 24 36 -56 c45 -69 87 -106 164
-142 106 -50 230 -48 339 8 60 30 128 97 157 153 l21 41 38 -58 c46 -71 87
-107 165 -144 107 -51 230 -48 340 8 57 29 137 107 156 152 7 17 16 31 21 31
5 0 17 -17 28 -38 29 -57 122 -137 189 -163 80 -31 204 -31 284 0 68 26 157
103 195 169 l26 45 23 -45 c32 -62 122 -142 192 -169 43 -17 78 -23 142 -23
112 0 180 26 260 101 68 63 105 131 121 221 27 150 -52 316 -186 393 l-50 29
308 0 307 0 0 800 0 800 -1815 0 -1815 0 0 -800z m3380 0 l0 -550 -1565 0
-1565 0 0 550 0 550 1565 0 1565 0 0 -550z m-2141 -829 c-58 -36 -116 -96
-140 -143 -11 -21 -21 -38 -24 -38 -2 0 -12 14 -21 32 -24 46 -103 127 -146
149 -21 11 -38 22 -38 24 0 3 93 5 207 5 l207 0 -45 -29z m731 9 c-58 -30
-119 -89 -150 -142 l-28 -51 -17 33 c-25 48 -104 129 -147 151 -21 11 -38 22
-38 24 0 3 93 5 208 5 l207 -1 -35 -19z m720 1 c-56 -30 -125 -96 -151 -145
-13 -25 -27 -46 -30 -46 -3 0 -13 16 -22 35 -24 51 -85 113 -142 146 l-50 29
215 -1 215 0 -35 -18z"/>
<path d="M10899 1717 c-101 -42 -164 -101 -206 -193 -72 -158 -37 -335 91
-452 77 -69 146 -96 256 -96 112 0 180 26 260 101 68 63 105 131 121 221 29
164 -64 338 -219 410 -47 22 -74 27 -152 30 -81 2 -103 -1 -151 -21z"/>
<path d="M4672 1608 c-6 -6 -12 -19 -12 -28 0 -14 245 -690 283 -783 28 -65
50 -54 163 83 55 66 101 120 105 120 3 0 77 -41 164 -91 907 -519 1905 -817
2973 -889 199 -13 665 -13 868 1 435 28 922 106 1294 206 118 31 146 45 165
83 43 84 -13 180 -105 180 -17 0 -102 -18 -188 -39 -826 -207 -1705 -250
-2567 -126 -806 116 -1610 394 -2322 802 -62 36 -113 68 -113 73 0 4 41 57 90
116 50 60 90 113 90 119 -1 32 -30 40 -406 105 -214 37 -407 71 -429 74 -27 5
-44 3 -53 -6z"/>
</g>
</svg>
